Coordinates
version=1
nRows=5
nColumns=40
inDegrees=yes

Units are S.I. units (second, meters, Newtons, ...)
If the header above contains a line with 'inDegrees', this indicates whether rotational values are in degrees (yes) or radians (no).

endheader
time	pelvis_tilt	pelvis_list	pelvis_rotation	pelvis_tx	pelvis_ty	pelvis_tz	hip_flexion_r	hip_adduction_r	hip_rotation_r	knee_angle_r	knee_angle_r_beta	ankle_angle_r	subtalar_angle_r	mtp_angle_r	hip_flexion_l	hip_adduction_l	hip_rotation_l	knee_angle_l	knee_angle_l_beta	ankle_angle_l	subtalar_angle_l	mtp_angle_l	lumbar_extension	lumbar_bending	lumbar_rotation	arm_flex_r	arm_add_r	arm_rot_r	elbow_flex_r	pro_sup_r	wrist_flex_r	wrist_dev_r	arm_flex_l	arm_add_l	arm_rot_l	elbow_flex_l	pro_sup_l	wrist_flex_l	wrist_dev_l
      0.78000000	     -5.41294819	     -7.26743719	     89.63684971	      0.17254391	      0.89823197	     -0.00906269	     35.01371604	     -3.20648093	      0.71633052	      4.63506291	      0.08089711	      5.18024735	      0.00000000	      0.00000000	     -9.37425995	      9.74853981	      9.97145673	     -2.50594569	     -0.04373700	     11.36802494	      0.00000000	      0.00000000	      2.80027124	     -5.86232612	     -3.77349114	      0.00000000	      0.00000000	      0.00000000	      0.00000000	      0.00000000	      0.00000000	      0.00000000	      0.00000000	      0.00000000	      0.00000000	      0.00000000	      0.00000000	      0.00000000	      0.00000000
      0.79000000	     -5.42279885	     -7.31146194	     89.65891685	      0.17294977	      0.89590607	     -0.02309382	     34.81857825	     -3.00139994	      1.61557158	      3.33821711	      0.05826288	      5.13482270	      0.00000000	      0.00000000	    -10.14860909	      9.71999970	      9.96861055	     -2.16788291	     -0.03783669	     11.88707985	      0.00000000	      0.00000000	      2.90746914	     -5.88181485	     -3.71593081	      0.00000000	      0.00000000	      0.00000000	      0.00000000	      0.00000000	      0.00000000	      0.00000000	      0.00000000	      0.00000000	      0.00000000	      0.00000000	      0.00000000	      0.00000000	      0.00000000
      0.80000000	     -5.36476333	     -7.31709005	     89.68621476	      0.17337255	      0.89390694	     -0.03721304	     34.67473349	     -2.75180189	      2.29206526	      2.76173340	      0.04820134	      4.85394884	      0.00000000	     -0.00000000	    -10.80887194	      9.62834482	      9.75463169	     -1.53694619	     -0.02682477	     12.22161281	     -0.00000000	      0.00000000	      2.96350537	     -5.82039514	     -3.56070043	     -0.00000000	      0.00000000	     -0.00000000	      0.00000000	      0.00000000	     -0.00000000	     -0.00000000	      0.00000000	      0.00000000	      0.00000000	      0.00000000	      0.00000000	      0.00000000	     -0.00000000
      0.81000000	     -5.37547020	     -7.52105329	     89.69065412	      0.17369271	      0.89188452	     -0.05138696	     34.95758300	     -2.58572601	      2.40991375	      3.05085255	      0.05324742	      4.68647803	      0.00000000	     -0.00000000	    -11.29079336	      9.60191911	      9.56343606	     -1.02834457	     -0.01794800	     12.05512275	      0.00000000	     -0.00000000	      3.27129708	     -5.81612744	     -3.35619255	      0.00000000	     -0.00000000	     -0.00000000	      0.00000000	      0.00000000	     -0.00000000	     -0.00000000	      0.00000000	     -0.00000000	      0.00000000	      0.00000000	      0.00000000	      0.00000000	      0.00000000
      0.82000000	     -5.14614382	     -7.55748659	     89.72052436	      0.17417181	      0.89050596	     -0.06562875	     34.96940424	     -2.17760785	      2.70690234	      3.63620233	      0.06346370	      4.02574965	      0.00000000	      0.00000000	    -11.62912551	      9.34002799	      9.43276047	      0.12480691	      0.00217829	     11.97236828	      0.00000000	      0.00000000	      3.34811495	     -5.53832607	     -3.04763282	      0.00000000	      0.00000000	      0.00000000	      0.00000000	      0.00000000	      0.00000000	      0.00000000	      0.00000000	      0.00000000	      0.00000000	      0.00000000	      0.00000000	      0.00000000	      0.00000000
